<svg xmlns="http://www.w3.org/2000/svg" xmlns:xlink="http://www.w3.org/1999/xlink" id="visual" width="960" height="200" version="1.1" viewBox="0 0 960 200"><path fill="#d1a7f2" d="M0 71L22.8 74.2C45.7 77.3 91.3 83.7 137 83C182.7 82.3 228.3 74.7 274 68.5C319.7 62.3 365.3 57.7 411.2 64.5C457 71.3 503 89.7 548.8 89.8C594.7 90 640.3 72 686 70.5C731.7 69 777.3 84 823 88.7C868.7 93.3 914.3 87.7 937.2 84.8L960 82L960 201L937.2 201C914.3 201 868.7 201 823 201C777.3 201 731.7 201 686 201C640.3 201 594.7 201 548.8 201C503 201 457 201 411.2 201C365.3 201 319.7 201 274 201C228.3 201 182.7 201 137 201C91.3 201 45.7 201 22.8 201L0 201Z"/><path fill="#b684de" d="M0 119L22.8 111.5C45.7 104 91.3 89 137 87.3C182.7 85.7 228.3 97.3 274 102C319.7 106.7 365.3 104.3 411.2 100.2C457 96 503 90 548.8 89.5C594.7 89 640.3 94 686 99.8C731.7 105.7 777.3 112.3 823 116C868.7 119.7 914.3 120.3 937.2 120.7L960 121L960 201L937.2 201C914.3 201 868.7 201 823 201C777.3 201 731.7 201 686 201C640.3 201 594.7 201 548.8 201C503 201 457 201 411.2 201C365.3 201 319.7 201 274 201C228.3 201 182.7 201 137 201C91.3 201 45.7 201 22.8 201L0 201Z"/><path fill="#9b62ca" d="M0 137L22.8 132C45.7 127 91.3 117 137 117.8C182.7 118.7 228.3 130.3 274 130.3C319.7 130.3 365.3 118.7 411.2 114.3C457 110 503 113 548.8 112C594.7 111 640.3 106 686 103.7C731.7 101.3 777.3 101.7 823 106.5C868.7 111.3 914.3 120.7 937.2 125.3L960 130L960 201L937.2 201C914.3 201 868.7 201 823 201C777.3 201 731.7 201 686 201C640.3 201 594.7 201 548.8 201C503 201 457 201 411.2 201C365.3 201 319.7 201 274 201C228.3 201 182.7 201 137 201C91.3 201 45.7 201 22.8 201L0 201Z"/><path fill="#803fb6" d="M0 146L22.8 145.8C45.7 145.7 91.3 145.3 137 144.2C182.7 143 228.3 141 274 142C319.7 143 365.3 147 411.2 147C457 147 503 143 548.8 140.8C594.7 138.7 640.3 138.3 686 137.5C731.7 136.7 777.3 135.3 823 135.7C868.7 136 914.3 138 937.2 139L960 140L960 201L937.2 201C914.3 201 868.7 201 823 201C777.3 201 731.7 201 686 201C640.3 201 594.7 201 548.8 201C503 201 457 201 411.2 201C365.3 201 319.7 201 274 201C228.3 201 182.7 201 137 201C91.3 201 45.7 201 22.8 201L0 201Z"/><path fill="#6417a2" d="M0 168L22.8 167.7C45.7 167.3 91.3 166.7 137 166.2C182.7 165.7 228.3 165.3 274 167C319.7 168.7 365.3 172.3 411.2 171.5C457 170.7 503 165.3 548.8 161.8C594.7 158.3 640.3 156.7 686 156.8C731.7 157 777.3 159 823 160.2C868.7 161.3 914.3 161.7 937.2 161.8L960 162L960 201L937.2 201C914.3 201 868.7 201 823 201C777.3 201 731.7 201 686 201C640.3 201 594.7 201 548.8 201C503 201 457 201 411.2 201C365.3 201 319.7 201 274 201C228.3 201 182.7 201 137 201C91.3 201 45.7 201 22.8 201L0 201Z"/></svg>