<svg xmlns="http://www.w3.org/2000/svg" xmlns:svg="http://www.w3.org/2000/svg" id="svg" width="199.958" height="92.547" version="1.1" viewBox="0 0 399.917 185.094"><metadata id="metadata17"/><g id="svgg" transform="translate(-0.083,-0.05877061)"><path id="path0" stroke="none" d="m 210.021,69.17 c 0.366,0.311 0.97,0.574 1.729,0.752 0.642,0.151 1.317,0.311 1.5,0.357 0.878,0.218 1.59,0.39 2.583,0.622 0.596,0.14 1.341,0.33 1.656,0.424 0.315,0.093 0.599,0.143 0.631,0.11 0.073,-0.072 -5.544,-1.83 -6.953,-2.176 -0.138,-0.033 -0.578,-0.175 -0.979,-0.314 l -0.729,-0.253 0.562,0.478 m 104.266,13.737 c -3.308,0.945 -4.431,5.104 -2.028,7.507 2.56,2.561 7.251,1.212 7.913,-2.275 0.654,-3.444 -2.458,-6.211 -5.885,-5.232 m -108.62,27.426 v 26.5 h 3.416 3.417 v -26.5 -26.5 h -3.417 -3.416 v 26.5 m 34.5,0 v 26.5 h 3.333 3.333 v -2.828 -2.828 l 1.292,1.3 c 7.386,7.431 21.993,5.824 27.829,-3.06 5.727,-8.719 4.017,-21.184 -3.703,-26.994 -4.633,-3.487 -11.838,-4.854 -17.084,-3.241 -2.909,0.895 -4.849,2.008 -6.791,3.898 L 247,104.42 V 94.127 83.833 h -3.417 -3.416 v 26.5 m 89.166,0 v 26.5 h 3.5 3.5 l 0.004,-5.208 0.004,-5.208 1.538,-1.406 c 0.846,-0.773 2.447,-2.259 3.558,-3.302 2.934,-2.756 2.624,-2.719 4.269,-0.515 0.251,0.336 0.551,0.711 0.667,0.833 0.116,0.123 1.559,1.911 3.206,3.973 1.648,2.063 3.037,3.787 3.088,3.833 0.05,0.046 0.352,0.421 0.671,0.833 0.617,0.799 0.648,0.837 2.026,2.501 0.493,0.595 1.156,1.42 1.472,1.833 0.317,0.412 0.669,0.847 0.783,0.967 0.114,0.119 0.31,0.364 0.437,0.544 0.219,0.314 0.415,0.326 4.509,0.284 l 4.279,-0.045 -1.058,-1.333 c -0.582,-0.734 -1.679,-2.121 -2.437,-3.084 -0.758,-0.962 -1.504,-1.9 -1.658,-2.083 -0.153,-0.183 -0.649,-0.821 -1.101,-1.417 -0.453,-0.596 -1.685,-2.171 -2.739,-3.5 -1.054,-1.329 -2.36,-2.979 -2.903,-3.666 -0.542,-0.688 -1.197,-1.513 -1.454,-1.834 -0.258,-0.32 -1.297,-1.633 -2.31,-2.916 l -1.842,-2.334 4.454,-4.38 c 2.45,-2.409 6.01,-5.892 7.912,-7.741 1.902,-1.848 3.459,-3.421 3.459,-3.494 0,-0.074 -1.86,-0.135 -4.134,-0.135 H 356.9 l -2.492,2.279 c -1.37,1.253 -3.236,2.96 -4.146,3.792 -0.909,0.832 -1.812,1.663 -2.004,1.846 -0.193,0.183 -1.099,1.008 -2.013,1.832 -0.914,0.824 -1.774,1.612 -1.912,1.75 -0.137,0.138 -0.999,0.926 -1.916,1.751 -0.916,0.825 -1.749,1.575 -1.851,1.667 -0.102,0.092 -0.991,0.917 -1.977,1.833 -0.986,0.917 -1.897,1.727 -2.024,1.8 -0.197,0.114 -0.232,-2.385 -0.232,-16.708 V 83.833 h -3.5 -3.5 v 26.5 M 117,111.833 v 25 h 3.583 3.584 l 0.007,-6.458 0.007,-6.458 4.47,-4.542 c 2.459,-2.498 4.545,-4.542 4.635,-4.542 0.09,0 0.567,0.469 1.06,1.042 0.492,0.573 0.935,1.079 0.983,1.125 0.048,0.046 0.462,0.533 0.919,1.083 0.457,0.55 1.105,1.3 1.44,1.667 0.335,0.367 0.822,0.929 1.084,1.25 0.261,0.321 1.256,1.483 2.21,2.583 1.87,2.157 2.98,3.448 3.871,4.5 0.31,0.367 0.839,0.967 1.175,1.333 0.337,0.367 0.862,0.977 1.167,1.354 0.546,0.676 4.445,5.198 4.979,5.775 0.249,0.269 0.637,0.29 4.464,0.25 l 4.191,-0.045 -0.873,-1.094 c -0.48,-0.602 -1.185,-1.465 -1.568,-1.917 -0.615,-0.729 -2.57,-3.088 -4.134,-4.989 -0.717,-0.873 -3.37,-4.073 -3.73,-4.5 -0.155,-0.183 -1.326,-1.608 -2.603,-3.167 -1.276,-1.558 -2.365,-2.871 -2.419,-2.916 -0.054,-0.046 -1.11,-1.321 -2.348,-2.834 -1.237,-1.512 -2.41,-2.937 -2.607,-3.166 -0.198,-0.229 -0.814,-0.978 -1.37,-1.663 l -1.011,-1.246 1.218,-1.254 c 0.67,-0.69 1.75,-1.816 2.399,-2.504 1.506,-1.593 2.262,-2.39 4.207,-4.432 5.018,-5.268 9.751,-10.257 10.579,-11.151 0.34,-0.367 1.151,-1.211 1.802,-1.875 l 1.185,-1.209 h -4.174 -4.175 l -5.395,5.54 c -2.967,3.046 -5.722,5.877 -6.121,6.291 -1.219,1.264 -10.112,10.396 -12.895,13.241 l -2.62,2.678 -0.005,-13.875 -0.004,-13.875 H 120.583 117 v 25 m 59.167,-13.074 c -12.517,1.733 -19.695,13.683 -15.562,25.908 5.376,15.9 30.008,16.911 36.544,1.5 0.214,-0.505 0.449,-1.036 0.522,-1.182 1.459,-2.918 1.478,-9.929 0.039,-14.068 -2.962,-8.522 -11.798,-13.508 -21.543,-12.158 m 127.067,-0.005 c -4.419,0.569 -7.616,2.292 -9.845,5.306 l -0.722,0.977 v -3.106 -3.105 l -3.292,0.045 -3.292,0.046 v 18.916 18.917 l 3.459,0.045 3.458,0.045 v -10.295 c 0,-10.946 0.033,-11.488 0.843,-14.018 1.485,-4.642 6.091,-7.587 11.468,-7.333 l 1.19,0.056 -10e-4,-3.375 V 98.5 l -0.792,0.019 c -0.435,0.01 -1.549,0.116 -2.474,0.235 m 76.516,0.073 c -5.311,0.722 -12.25,3.733 -11.473,4.978 0.095,0.153 0.534,0.953 0.975,1.778 0.441,0.825 0.977,1.78 1.192,2.122 0.214,0.342 0.389,0.698 0.389,0.792 0,0.268 0.256,0.199 0.577,-0.156 2.324,-2.568 10.313,-4.408 14.858,-3.422 4.385,0.951 6.719,3.941 6.729,8.623 l 0.003,1.291 -5.458,0.012 c -12.243,0.027 -16.27,1.202 -19.017,5.552 -2.481,3.929 -1.824,9.721 1.469,12.936 5.491,5.363 17.741,5.133 22.631,-0.425 l 0.708,-0.805 v 2.365 2.365 h 3.334 3.333 l -10e-4,-12.125 c -0.002,-13.984 -0.058,-14.829 -1.173,-17.781 -2.408,-6.376 -9.525,-9.398 -19.076,-8.1 m -156.917,19.006 v 19 h 3.5 3.5 v -19 -19 h -3.5 -3.5 v 19 m 89.334,0 v 19 h 3.5 3.5 v -19 -19 h -3.5 -3.5 v 19 M 181.864,104.922 c 6.26,1.31 9.861,6.024 9.861,12.911 0,7.954 -4.959,13.186 -12.511,13.202 -8.07,0.016 -13.514,-6.436 -12.581,-14.912 0.865,-7.86 7.584,-12.801 15.231,-11.201 m 80.489,0.009 c 13.112,2.657 13.358,22.809 0.314,25.813 -8.435,1.943 -15.668,-4.003 -15.667,-12.88 0.001,-8.778 6.954,-14.635 15.353,-12.933 M 393,122.643 v 2.644 l -0.542,1.058 c -4.496,8.79 -21.678,6.199 -18.167,-2.739 1.169,-2.975 3.219,-3.572 12.334,-3.592 L 393,120 v 2.643"/><path id="path1" stroke="none" d="m 16.492,25.772 c -0.005,0.263 -0.041,0.778 -0.08,1.145 -0.656,6.16 -0.529,16.268 0.266,21.25 0.935,5.864 2.426,11.234 4.077,14.689 1.635,3.42 3.371,6.328 4.898,8.204 0.512,0.628 1.005,1.266 1.097,1.416 0.092,0.151 0.523,0.644 0.958,1.095 0.436,0.452 0.792,0.871 0.792,0.931 0,0.059 0.185,0.207 0.411,0.328 0.226,0.121 0.364,0.303 0.307,0.403 -0.058,0.101 -0.046,0.131 0.025,0.067 0.122,-0.11 1.171,0.656 5.508,4.025 1.009,0.784 2.428,1.875 3.154,2.425 0.725,0.55 1.569,1.234 1.874,1.52 0.305,0.286 0.554,0.486 0.554,0.446 0,-0.04 0.118,0.045 0.262,0.189 0.144,0.144 0.355,0.262 0.469,0.262 0.113,0 0.375,0.157 0.582,0.349 0.206,0.193 0.464,0.364 0.573,0.381 0.109,0.017 0.606,0.254 1.105,0.525 0.499,0.272 0.958,0.479 1.022,0.46 0.063,-0.02 0.247,0.112 0.41,0.291 0.163,0.18 0.428,0.327 0.589,0.327 0.162,0 0.319,0.067 0.349,0.15 0.031,0.082 0.801,0.499 1.711,0.926 0.91,0.426 2.11,0.99 2.666,1.251 0.557,0.261 1.747,0.819 2.646,1.241 0.898,0.421 1.704,0.765 1.791,0.765 0.222,0 0.198,0.468 -0.074,1.428 -0.571,2.023 -0.704,1.759 1.885,3.726 1.829,1.39 1.668,1.463 2.254,-1.029 C 58.826,93.881 59.067,93 59.11,93 c 0.159,0 5.695,2.807 7.057,3.579 7.727,4.377 12.159,9.377 14.26,16.088 0.83,2.65 0.768,2.537 1.851,3.362 0.535,0.408 1.834,1.406 2.889,2.219 1.054,0.813 2.404,1.85 3,2.305 0.596,0.455 1.152,0.89 1.237,0.967 0.092,0.083 0.027,0.292 -0.162,0.518 -0.174,0.208 0.36,-0.296 1.186,-1.121 5.533,-5.523 10.095,-13.406 13.597,-23.5 1.385,-3.992 1.462,-3.443 -0.723,-5.162 C 101.408,90.764 101,90.647 101,91.59 c 0,0.49 -2.486,7.569 -3.363,9.577 -1.85,4.235 -3.225,6.807 -5.389,10.083 -1.439,2.179 -3.434,4.701 -5.231,6.614 l -0.767,0.817 -0.044,-0.882 C 85.763,108.969 82.264,100.783 76,93.923 73.85,91.568 69.941,88.012 66.917,85.661 66.275,85.162 65.667,84.678 65.566,84.585 65.464,84.493 64.499,83.742 63.419,82.917 48.343,71.392 43.167,65.586 38.161,54.583 36.617,51.19 34,41.302 34,38.861 34,38.799 33.156,38.094 32.125,37.294 28.936,34.819 24.65,31.512 21.81,29.333 20.316,28.188 18.714,26.944 18.25,26.569 17.786,26.195 17.202,25.755 16.953,25.592 L 16.5,25.295 16.492,25.772 m 6.089,7.728 c 1.459,2.107 3.083,4.023 5.227,6.167 l 1.917,1.916 0.453,2.25 c 2.575,12.786 7.309,21.781 16.154,30.689 3.878,3.905 5.783,5.528 13.849,11.8 3.404,2.647 6.172,4.881 6.117,4.936 C 66.27,91.285 65.086,90.732 63.665,90.029 61.259,88.837 59.87,88.183 57.767,87.249 57.299,87.041 56.392,86.631 55.75,86.338 55.108,86.044 54.321,85.686 54,85.541 34.804,76.896 26.352,68.327 22.56,53.667 21.271,48.682 20.201,38.851 20.564,35.333 c 0.053,-0.504 0.107,-1.629 0.122,-2.5 0.033,-2.011 0.101,-2.181 0.553,-1.386 0.199,0.35 0.803,1.274 1.342,2.053"/><path id="path2" stroke="none" d="m 224.75,69.873 c -1.876,0.674 -3.059,2.281 -3.076,4.178 -0.055,5.991 8.962,6.222 9.3,0.239 0.177,-3.123 -3.186,-5.509 -6.224,-4.417 m -185.791,68.96 c -0.252,0.154 -0.421,0.316 -0.375,0.362 0.045,0.045 -0.011,0.085 -0.126,0.089 -0.692,0.019 -13.078,8.442 -16.23,11.036 -0.287,0.237 -1.023,0.805 -1.635,1.263 -3.834,2.873 -10.701,8.448 -14.426,11.714 -2.024,1.774 -5.429,5.239 -5.769,5.87 -0.252,0.467 -0.315,0.936 -0.315,2.357 v 1.773 l 0.792,1.563 c 3.764,7.433 10.687,12.06 14.44,9.652 3.107,-1.994 11.213,-9.791 17.772,-17.095 0.823,-0.917 1.534,-1.705 1.58,-1.75 1.051,-1.052 6.458,-7.558 8.725,-10.5 1.165,-1.513 2.268,-2.938 2.45,-3.167 1.27,-1.596 3.646,-5.397 3.491,-5.584 -0.095,-0.114 -0.753,-0.649 -1.461,-1.187 -0.709,-0.539 -1.314,-1.035 -1.344,-1.104 -0.143,-0.321 -0.541,-0.056 -1,0.667 -0.277,0.435 -0.603,0.91 -0.724,1.056 -0.121,0.146 -0.296,0.376 -0.387,0.513 -0.956,1.426 -5.484,7.113 -7.605,9.552 -2.929,3.369 -6.914,7.856 -7.479,8.42 -0.046,0.046 -0.946,1.018 -2,2.159 -7.577,8.206 -13.626,14.01 -14.6,14.006 -1.63,-0.005 -6.036,-4.457 -7.722,-7.802 -0.704,-1.395 -0.435,-1.785 3.404,-4.946 0.446,-0.367 1.266,-1.046 1.822,-1.511 1.039,-0.865 4.054,-3.265 8.18,-6.511 7.287,-5.732 18.265,-13.717 23,-16.729 0.641,-0.408 1.221,-0.818 1.289,-0.912 0.067,-0.094 0.123,-0.111 0.125,-0.039 10e-4,0.072 0.153,0.05 0.336,-0.048 0.36,-0.193 0.514,-0.05 -2.584,-2.395 -0.458,-0.347 -0.908,-0.725 -1,-0.841 -0.132,-0.165 -0.262,-0.151 -0.624,0.069"/><path id="path3" stroke="none" d="m 30.778,0.507 c -0.057,0.317 -0.218,1.551 -0.356,2.743 -0.138,1.192 -0.398,3.367 -0.577,4.833 -1.066,8.714 -1.61,23.117 -0.964,25.543 0.129,0.482 -0.56,0.035 -0.899,-0.584 -0.113,-0.207 -0.272,-0.375 -0.353,-0.375 -0.082,0 -0.102,-0.075 -0.046,-0.167 0.057,-0.092 0.024,-0.167 -0.073,-0.167 -0.097,0 -0.177,-0.083 -0.177,-0.184 0,-0.101 -0.188,-0.332 -0.418,-0.513 -0.23,-0.181 -0.376,-0.398 -0.323,-0.483 C 26.644,31.069 26.607,31 26.51,31 c -0.097,0 -0.177,-0.078 -0.177,-0.174 0,-0.095 -0.077,-0.264 -0.172,-0.375 -1.537,-1.799 -4.018,-6.782 -7.276,-14.613 -0.918,-2.207 -0.991,-2.27 -1.125,-0.978 -0.06,0.581 -0.18,1.582 -0.266,2.223 -0.269,1.999 -0.639,5.274 -0.753,6.667 -0.061,0.733 -0.121,1.382 -0.134,1.442 -0.013,0.06 0.276,0.335 0.643,0.61 0.367,0.276 2.129,1.634 3.917,3.018 1.787,1.383 4.587,3.546 6.223,4.806 1.635,1.26 3.764,2.909 4.731,3.666 1.962,1.534 1.954,1.53 1.816,0.98 -0.054,-0.217 -0.144,-0.94 -0.199,-1.606 C 33.684,36 33.614,35.326 33.583,35.167 33.058,32.44 33.252,18.056 33.796,19.362 c 0.465,1.116 4.15,6.677 5.087,7.677 0.11,0.118 0.65,0.739 1.199,1.379 2.055,2.397 4.907,5.03 7.588,7.005 5.131,3.781 10.482,6.377 23.58,11.439 15.676,6.06 23.512,12.078 29.365,22.555 1.426,2.551 3.613,7.483 3.965,8.942 0.057,0.236 -0.442,2.307 -1.26,5.224 -0.745,2.659 -1.372,4.946 -1.393,5.084 -0.082,0.547 -0.305,1.426 -0.402,1.583 -0.257,0.416 -0.252,0.422 2.674,2.721 l 1.117,0.877 0.105,-0.632 c 0.058,-0.348 0.141,-0.745 0.186,-0.883 0.045,-0.137 0.084,-0.287 0.087,-0.333 0.003,-0.046 0.074,-0.211 0.157,-0.367 0.132,-0.246 0.61,-1.866 1.565,-5.3 0.75,-2.697 2.305,-8.317 2.422,-8.75 0.647,-2.411 2.439,-7.798 3.006,-9.04 0.177,-0.388 0.323,-0.752 0.323,-0.808 0,-0.129 0.347,-0.9 1.348,-2.985 0.439,-0.917 0.797,-1.733 0.794,-1.815 -0.002,-0.081 0.062,-0.194 0.144,-0.25 0.081,-0.056 0.319,-0.402 0.528,-0.768 0.21,-0.367 0.267,-0.528 0.128,-0.359 -0.299,0.364 -0.24,0.394 -2.161,-1.101 -0.808,-0.629 -1.587,-1.121 -1.731,-1.092 -0.558,0.11 -3.893,7.374 -4.978,10.843 -0.37,1.183 -0.399,1.183 -0.945,0 -1.161,-2.515 -4.392,-7.901 -5.352,-8.921 -0.106,-0.112 -0.53,-0.652 -0.942,-1.2 -0.912,-1.212 -4.855,-5.249 -6.026,-6.17 -0.466,-0.367 -1.008,-0.806 -1.203,-0.977 -1.7,-1.486 -6.08,-4.206 -9.7,-6.024 l -2.678,-1.345 0.674,-0.911 c 0.712,-0.962 3.138,-3.956 3.775,-4.66 0.207,-0.229 0.684,-0.752 1.059,-1.162 0.375,-0.41 0.518,-0.609 0.318,-0.442 -0.425,0.353 -0.35,0.389 -2.219,-1.063 -1.612,-1.253 -1.97,-1.437 -2.106,-1.083 -0.052,0.134 -0.368,0.528 -0.702,0.874 -1.051,1.088 -1.597,1.752 -3.444,4.189 -0.988,1.304 -1.879,2.339 -1.981,2.3 C 69.932,41.374 64.373,39.128 61.188,37.722 49.61,32.612 42.261,25.826 37.033,15.417 35.563,12.49 35.248,11.722 32.861,5.25 31.948,2.775 31.13,0.566 31.042,0.34 30.887,-0.061 30.881,-0.057 30.778,0.507 M 292.736,102 c 0,1.696 0.025,2.39 0.055,1.542 0.03,-0.848 0.03,-2.236 0,-3.084 -0.03,-0.848 -0.055,-0.154 -0.055,1.542"/><path id="path4" stroke="none" d="m 51.164,113.125 c -0.002,0.16 -0.078,0.967 -0.169,1.792 -0.09,0.825 -0.274,2.55 -0.407,3.833 -0.214,2.065 -0.393,3.731 -0.671,6.25 -0.408,3.696 -0.905,7.837 -1.081,9 -0.089,0.596 -0.164,1.128 -0.166,1.182 -0.004,0.114 -1.378,0.415 -2.587,0.566 -1.305,0.163 -3.88,1.235 -6.04,2.515 -0.672,0.398 -0.672,0.457 -10e-4,0.929 0.298,0.21 1.139,0.853 1.87,1.428 1.39,1.095 1.642,1.194 2.075,0.818 0.755,-0.655 3.846,-1.479 3.846,-1.026 0,0.235 -0.62,1.583 -1.261,2.741 l -0.407,0.737 0.376,0.296 c 2.256,1.778 2.993,2.334 3.031,2.287 0.832,-1.039 2.613,-4.907 3.175,-6.897 0.027,-0.096 0.564,-0.272 1.193,-0.391 7.808,-1.48 17.583,-4.719 21.102,-6.992 0.8,-0.517 0.793,-0.555 -0.25,-1.344 -0.482,-0.364 -1.324,-1.003 -1.872,-1.422 -1.142,-0.871 -1.003,-0.818 -1.473,-0.56 -0.2,0.11 -0.444,0.214 -0.542,0.231 -0.168,0.029 -1.982,0.789 -3.213,1.347 -2.108,0.955 -7.857,2.693 -11.756,3.555 -2.724,0.601 -2.476,0.703 -2.26,-0.93 0.243,-1.84 0.618,-5.062 0.91,-7.82 0.412,-3.894 0.58,-5.442 0.659,-6.072 0.042,-0.331 0.116,-1.161 0.166,-1.845 0.05,-0.684 0.133,-1.395 0.184,-1.58 0.07,-0.252 0.053,-0.278 -0.068,-0.103 -0.129,0.187 -0.459,10e-4 -1.636,-0.923 -2.521,-1.977 -2.722,-2.096 -2.727,-1.602"/><path id="path6" stroke="none" d="m 101.384,24.122 c -5.647,0.942 -11.668,4.416 -17.418,10.049 -1.748,1.712 -1.98,1.996 -1.633,1.996 0.091,0 0.891,0.562 1.778,1.25 1.915,1.485 1.586,1.448 2.806,0.317 7.102,-6.587 14.106,-10.002 19.126,-9.326 0.297,0.04 0.915,0.116 1.374,0.167 1.641,0.186 1.961,0.251 2.849,0.583 1.334,0.499 1.12,0.215 -1.141,-1.52 -1.123,-0.862 -2.692,-2.069 -3.486,-2.683 -1.627,-1.256 -1.67,-1.264 -4.255,-0.833 m 21.422,14.34 c 0.209,0.293 0.542,0.646 0.74,0.785 0.199,0.139 0.289,0.253 0.199,0.253 -0.089,0 0.045,0.178 0.297,0.395 0.252,0.216 0.458,0.462 0.458,0.546 0,0.083 0.131,0.275 0.292,0.427 0.418,0.395 0.708,0.766 0.708,0.906 0,0.067 0.142,0.276 0.316,0.465 0.404,0.44 2.017,3.265 2.017,3.533 0,0.111 -0.281,0.293 -0.625,0.405 -1.923,0.625 -5.798,2.9 -7.875,4.624 -2.202,1.829 -6,6.042 -6,6.656 0,0.081 -0.135,0.292 -0.3,0.47 -0.407,0.437 -0.879,1.406 -0.685,1.406 0.086,0 0.812,0.51 1.613,1.134 0.8,0.623 1.547,1.188 1.658,1.256 0.208,0.126 0.75,-0.31 0.915,-0.736 0.566,-1.468 5.032,-6.161 7.383,-7.758 3.127,-2.124 3.9,-2.338 6.583,-1.824 0.229,0.044 0.867,0.154 1.417,0.245 1.125,0.184 3.616,0.633 4.25,0.765 0.229,0.048 0.641,0.124 0.916,0.17 1.413,0.233 2.263,0.403 2.384,0.478 0.074,0.046 0.431,0.122 0.792,0.17 0.362,0.048 0.808,0.126 0.991,0.172 1.152,0.294 1.583,0.387 1.583,0.342 0,-0.052 -1.13,-0.964 -2.164,-1.747 -0.303,-0.229 -1.76,-1.354 -3.238,-2.5 -1.478,-1.146 -3.272,-2.533 -3.986,-3.083 -0.714,-0.55 -2.25,-1.735 -3.414,-2.633 -1.163,-0.898 -2.677,-2.058 -3.364,-2.579 -0.688,-0.52 -1.288,-0.99 -1.334,-1.043 -0.473,-0.555 -2.849,-2.153 -2.527,-1.7"/><path id="path7" stroke="none" d="m 29.75,75.799 c 0.642,0.656 1.219,1.195 1.284,1.197 0.064,0.002 0.372,0.266 0.683,0.587 0.312,0.321 0.602,0.584 0.646,0.584 0.044,0 0.447,0.337 0.896,0.75 0.449,0.412 0.904,0.75 1.011,0.75 0.107,0 0.242,0.123 0.299,0.274 0.058,0.15 0.153,0.226 0.212,0.167 0.058,-0.058 0.211,0.045 0.34,0.229 0.13,0.184 0.297,0.297 0.373,0.25 0.076,-0.047 0.185,0.038 0.242,0.188 0.058,0.15 0.145,0.233 0.194,0.184 0.049,-0.049 0.319,0.121 0.6,0.377 0.281,0.257 0.783,0.605 1.115,0.774 0.333,0.169 0.63,0.363 0.661,0.432 0.03,0.068 0.155,0.125 0.277,0.125 0.123,0 0.248,0.059 0.278,0.132 0.031,0.072 0.356,0.303 0.722,0.513 l 0.667,0.382 -0.583,-0.521 C 39.346,82.887 38.522,82.224 37.836,81.701 37.15,81.178 35.424,79.85 34.001,78.75 32.579,77.65 30.978,76.412 30.444,76 28.663,74.623 28.576,74.598 29.75,75.799 m 24.193,18.609 c -0.054,0.142 -0.056,0.371 -0.003,0.509 0.052,0.137 0.023,0.25 -0.066,0.25 -0.089,0 -0.209,0.318 -0.267,0.708 -0.057,0.39 -0.22,1.346 -0.361,2.125 -0.615,3.405 -1.565,10.448 -1.833,13.606 l -0.101,1.189 0.552,0.388 c 0.304,0.213 1.216,0.908 2.027,1.544 1.511,1.186 1.811,1.247 1.758,0.356 -0.01,-0.183 -0.002,-0.389 0.02,-0.458 0.022,-0.069 0.053,-0.256 0.069,-0.417 0.271,-2.662 1.178,-9.746 1.515,-11.824 0.145,-0.899 0.366,-2.347 0.491,-3.217 0.125,-0.871 0.284,-1.727 0.353,-1.903 0.083,-0.209 0.065,-0.281 -0.051,-0.209 -0.155,0.096 -2.657,-1.675 -3.65,-2.583 -0.307,-0.281 -0.366,-0.289 -0.453,-0.064 m 27.144,20.675 c 0.239,0.714 0.577,4.087 0.578,5.781 l 0.002,1.78 -1.375,0.986 c -1.32,0.946 -3.006,2.066 -3.709,2.463 -0.183,0.104 -0.73,0.425 -1.215,0.714 -0.486,0.29 -0.936,0.528 -1,0.53 -0.065,0.002 -0.305,0.15 -0.535,0.33 -0.229,0.179 -0.548,0.327 -0.708,0.329 -0.16,0.002 -0.292,0.078 -0.292,0.167 0,0.09 -0.187,0.211 -0.416,0.269 -0.666,0.167 -0.771,0.063 2.537,2.538 0.407,0.304 0.704,0.646 0.66,0.759 -0.17,0.445 4.412,-2.169 7.053,-4.023 1.01,-0.709 2.758,-2.064 3.916,-3.036 0.799,-0.67 2.917,-2.826 2.917,-2.968 0,-0.072 -0.544,-0.545 -1.208,-1.051 -0.665,-0.506 -2.071,-1.586 -3.125,-2.401 -1.055,-0.814 -2.347,-1.808 -2.873,-2.208 -0.525,-0.401 -1.037,-0.855 -1.137,-1.01 -0.158,-0.245 -0.168,-0.239 -0.07,0.051"/><path id="path8" stroke="none" d="m 104.333,23.876 c 0,0.046 0.582,0.529 1.292,1.073 0.71,0.543 2.154,1.649 3.208,2.456 1.055,0.807 2.089,1.646 2.299,1.865 0.21,0.218 0.5,0.397 0.644,0.397 0.385,0 3.178,1.513 3.839,2.08 0.109,0.093 0.473,0.357 0.809,0.586 0.336,0.23 0.893,0.661 1.239,0.959 0.345,0.298 0.663,0.541 0.706,0.541 0.101,0 1.955,1.839 3.131,3.105 0.504,0.544 1.554,1.469 2.333,2.057 0.779,0.588 1.454,1.113 1.5,1.167 0.046,0.053 0.646,0.523 1.334,1.043 0.687,0.521 2.201,1.681 3.364,2.579 1.164,0.898 2.7,2.083 3.414,2.633 0.714,0.55 2.508,1.937 3.986,3.083 1.478,1.146 2.936,2.271 3.241,2.5 0.304,0.229 0.935,0.726 1.403,1.103 0.765,0.619 1.335,0.86 2.342,0.99 0.183,0.024 1.533,0.321 3,0.66 1.466,0.339 2.966,0.676 3.333,0.749 0.367,0.073 0.854,0.18 1.083,0.238 0.23,0.057 0.754,0.177 1.167,0.265 0.412,0.089 1.2,0.265 1.75,0.392 0.55,0.127 1.9,0.434 3,0.683 1.807,0.409 3.385,0.771 6.583,1.509 0.596,0.137 1.534,0.352 2.084,0.476 2.834,0.641 10.506,2.453 13.833,3.267 0.367,0.09 1.492,0.356 2.5,0.591 1.008,0.236 2.921,0.69 4.25,1.009 1.329,0.319 2.867,0.687 3.417,0.817 0.55,0.13 2.237,0.535 3.75,0.901 1.512,0.365 2.937,0.699 3.166,0.742 0.23,0.043 0.529,0.123 0.667,0.177 0.137,0.055 0.737,0.208 1.333,0.341 0.596,0.133 1.759,0.401 2.584,0.596 0.825,0.195 1.631,0.382 1.792,0.415 0.161,0.033 0.35,0.096 0.42,0.139 0.07,0.044 0.462,0.129 0.871,0.19 0.409,0.061 0.805,0.149 0.882,0.197 0.076,0.047 0.378,0.119 0.67,0.16 0.292,0.041 0.719,0.144 0.948,0.229 0.58,0.216 1.345,0.363 1.801,0.347 0.244,-0.009 0.342,0.054 0.268,0.173 -0.07,0.114 -0.025,0.155 0.116,0.105 0.127,-0.046 0.382,-0.007 0.565,0.086 0.321,0.162 0.322,0.156 0.041,-0.161 -0.16,-0.181 -0.235,-0.392 -0.166,-0.468 0.069,-0.076 0.028,-0.082 -0.091,-0.014 -0.118,0.069 -0.324,0.034 -0.458,-0.077 -0.133,-0.111 -0.243,-0.145 -0.243,-0.077 0,0.068 -0.112,0.031 -0.25,-0.083 -0.137,-0.114 -0.25,-0.152 -0.25,-0.084 0,0.069 -0.093,0.048 -0.208,-0.046 -0.171,-0.14 -0.984,-0.407 -1.875,-0.614 -0.092,-0.022 -0.317,-0.095 -0.5,-0.163 -0.848,-0.316 -1.199,-0.423 -1.61,-0.492 -0.244,-0.041 -0.598,-0.156 -0.785,-0.257 -0.188,-0.1 -0.401,-0.169 -0.473,-0.153 -0.073,0.015 -0.245,-0.015 -0.382,-0.069 -0.443,-0.171 -1.933,-0.628 -2.348,-0.72 -0.644,-0.142 -0.899,-0.208 -0.944,-0.244 -0.023,-0.018 -0.098,-0.043 -0.166,-0.056 -0.069,-0.012 -0.463,-0.145 -0.875,-0.294 -0.413,-0.15 -1.913,-0.621 -3.334,-1.046 -3.23,-0.966 -5.066,-1.525 -6.666,-2.028 -1.712,-0.539 -9.838,-3.007 -10.25,-3.114 -0.184,-0.048 -2.209,-0.663 -4.5,-1.367 -6.93,-2.128 -10.137,-3.107 -10.75,-3.282 -0.321,-0.091 -2.009,-0.601 -3.75,-1.134 -1.742,-0.533 -3.729,-1.136 -4.417,-1.339 -0.687,-0.204 -1.812,-0.546 -2.5,-0.76 -0.687,-0.214 -2.113,-0.65 -3.167,-0.97 -4.157,-1.26 -8.151,-2.467 -9.5,-2.87 -0.779,-0.233 -2.354,-0.707 -3.5,-1.054 -1.145,-0.347 -2.395,-0.717 -2.776,-0.823 -0.664,-0.184 -0.728,-0.263 -1.54,-1.898 -1.195,-2.407 -2.436,-4.504 -3.034,-5.126 -0.131,-0.136 -0.497,-0.585 -0.813,-0.997 -5.458,-7.112 -12.324,-12.289 -17.546,-13.229 -0.253,-0.046 -0.591,-0.123 -0.75,-0.171 -0.16,-0.048 -0.516,-0.134 -0.791,-0.19 -0.664,-0.137 -4.75,-0.31 -4.75,-0.201"/></g></svg>